<?xml version="1.0" encoding="iso-8859-1"?>
<!-- Uploaded to: SVG Repo, www.svgrepo.com, Generator: SVG Repo Mixer Tools -->
<!DOCTYPE svg PUBLIC "-//W3C//DTD SVG 1.1//EN" "http://www.w3.org/Graphics/SVG/1.1/DTD/svg11.dtd">
<svg fill="#000000" version="1.1" id="Capa_1" xmlns="http://www.w3.org/2000/svg" xmlns:xlink="http://www.w3.org/1999/xlink" 
	 width="800px" height="800px" viewBox="0 0 395.71 395.71"
	 xml:space="preserve">
<g>
	<path d="M8.081 0C4.989 0 2.472 2.517 2.472 5.609c0 2.977 5.089 9.933 5.306 10.227l.202.275c.024.032 .061.051 .101.051 .04 0 .078-.019.102-.051l.202-.275c.217-.295 5.306-7.25 5.306-10.227C13.691 2.517 11.174 0 8.081 0zM8.081 3.6c1.108 0 2.009.901 2.009 2.009 0 1.108-.901 2.009-2.009 2.009-1.108 0-2.009-.902-2.009-2.009C6.072 4.501 6.974 3.6 8.081 3.6z"/>
</g>
</svg>